<?xml version="1.0" standalone="no"?>
<!DOCTYPE svg PUBLIC "-//W3C//DTD SVG 20010904//EN"
 "http://www.w3.org/TR/2001/REC-SVG-20010904/DTD/svg10.dtd">
<svg version="1.0" xmlns="http://www.w3.org/2000/svg"
 width="128.000000pt" height="128.000000pt" viewBox="0 0 128.000000 128.000000"
 preserveAspectRatio="xMidYMid meet">
<metadata>
Created by potrace 1.14, written by Peter Selinger 2001-2017
</metadata>
<g transform="translate(0.000000,128.000000) scale(0.100000,-0.100000)"
fill="#000000" stroke="none">
<path d="M333 1038 c-6 -7 -77 -134 -158 -281 -176 -320 -175 -298 -13 -347
144 -43 171 -54 169 -65 0 -5 -7 -10 -13 -10 -7 0 -13 -9 -13 -20 0 -17 35
-31 265 -102 146 -46 273 -83 282 -83 10 0 25 12 35 26 17 27 12 27 120 9 35
-6 43 -4 52 12 14 28 191 630 191 653 0 23 -36 50 -67 50 -29 0 -35 12 -23 44
5 14 7 33 4 41 -5 12 -16 8 -54 -20 -26 -19 -54 -35 -61 -35 -8 0 -162 32
-342 70 -180 39 -336 70 -346 70 -10 0 -23 -6 -28 -12z m357 -95 c168 -37 307
-70 308 -75 2 -4 9 -5 15 -2 7 3 1 -3 -13 -14 -13 -11 -29 -18 -34 -15 -5 3
-6 1 -2 -5 7 -11 -27 -36 -37 -26 -3 3 -8 0 -13 -7 -5 -8 -3 -10 7 -5 8 4 5 1
-5 -8 -10 -8 -22 -13 -27 -11 -4 3 -11 0 -15 -6 -5 -8 -2 -10 7 -5 8 4 3 -2
-10 -13 -12 -12 -28 -18 -34 -14 -5 3 -7 1 -4 -4 4 -6 -5 -19 -19 -28 -15 -9
-23 -12 -20 -6 4 6 3 11 -3 11 -5 0 -12 13 -16 30 -3 16 -17 51 -29 77 -13 26
-25 54 -28 62 -2 8 -12 15 -21 17 -15 2 -17 -3 -11 -34 6 -33 5 -35 -8 -24
-21 17 -57 3 -122 -49 -47 -38 -54 -40 -95 -34 -56 8 -72 15 -65 26 3 5 1 9
-5 9 -5 0 -12 -4 -16 -10 -4 -6 -15 -6 -30 0 -14 5 -25 6 -25 1 0 -5 12 -12
28 -16 25 -7 25 -8 7 -15 -11 -5 -14 -9 -7 -9 10 -1 10 -6 1 -23 -6 -13 -13
-24 -14 -26 -1 -1 -14 2 -29 7 -16 7 -26 7 -26 1 0 -5 11 -12 25 -16 14 -3 25
-10 25 -14 0 -4 11 -5 25 -2 34 6 31 -13 -5 -35 -28 -16 -60 -56 -89 -111 -11
-21 -11 -22 15 -16 15 4 39 13 53 20 14 8 33 14 41 14 8 0 30 16 48 34 58 58
74 63 150 41 37 -10 75 -18 84 -19 13 0 14 -4 6 -13 -13 -16 -32 -17 -22 -1 4
7 3 8 -5 4 -6 -4 -9 -11 -6 -16 3 -5 -38 -43 -92 -84 -93 -72 -123 -90 -107
-64 4 7 3 8 -4 4 -12 -7 -300 70 -316 84 -8 8 33 87 211 418 25 45 50 82 56
82 6 0 149 -30 317 -67z m490 -105 c0 -2 -40 -133 -89 -293 -89 -289 -90 -290
-116 -288 -15 1 -30 4 -32 7 -4 3 141 429 186 549 7 17 18 27 31 27 11 0 20
-1 20 -2z m-471 -115 c1 -26 -8 -28 -64 -12 -36 10 -38 12 -18 20 12 4 32 22
45 39 l23 32 6 -29 c4 -15 7 -38 8 -50z m-285 -30 c-11 -8 -23 -9 -34 -3 -10
5 -21 6 -25 2 -5 -4 -6 -2 -3 3 4 6 22 10 42 10 31 0 34 -2 20 -12z m193 -46
c0 -8 -6 -14 -14 -14 -9 0 -10 4 -2 14 6 7 12 13 14 13 1 0 2 -6 2 -13z m103
-11 c0 -2 -8 -10 -17 -17 -16 -13 -17 -12 -4 4 13 16 21 21 21 13z m41 -197
c2 -18 7 -40 13 -48 8 -10 8 -15 -1 -18 -7 -2 -10 -10 -7 -18 3 -7 -3 -15 -13
-18 -15 -4 -14 -5 4 -6 12 0 24 5 26 12 4 9 6 9 6 0 2 -24 -23 -25 -107 -2
-47 12 -79 25 -71 27 8 3 16 8 19 13 8 11 123 99 126 96 2 -2 4 -19 5 -38z
m-381 -63 c0 -2 -8 -10 -17 -17 -16 -13 -17 -12 -4 4 13 16 21 21 21 13z"/>
</g>
</svg>
